<mxfile host="app.diagrams.net" modified="2024-04-06T00:42:49.917Z" agent="Mozilla/5.0 (Windows NT 10.0; Win64; x64; rv:124.0) Gecko/20100101 Firefox/124.0" etag="Sxgofa66ksRYlKbIUvZ2" version="24.2.2" type="device">
  <diagram id="C5RBs43oDa-KdzZeNtuy" name="Page-1">
    <mxGraphModel dx="1434" dy="792" grid="1" gridSize="10" guides="1" tooltips="1" connect="1" arrows="1" fold="1" page="1" pageScale="1" pageWidth="1200" pageHeight="800" math="0" shadow="0">
      <root>
        <mxCell id="WIyWlLk6GJQsqaUBKTNV-0" />
        <mxCell id="WIyWlLk6GJQsqaUBKTNV-1" parent="WIyWlLk6GJQsqaUBKTNV-0" />
        <mxCell id="u4m0mKmiAiPlMhXc4lx--127" style="edgeStyle=orthogonalEdgeStyle;rounded=0;orthogonalLoop=1;jettySize=auto;html=1;exitX=0.5;exitY=1;exitDx=0;exitDy=0;entryX=0.5;entryY=0;entryDx=0;entryDy=0;" parent="WIyWlLk6GJQsqaUBKTNV-1" source="u4m0mKmiAiPlMhXc4lx--42" target="u4m0mKmiAiPlMhXc4lx--46" edge="1">
          <mxGeometry relative="1" as="geometry" />
        </mxCell>
        <mxCell id="u4m0mKmiAiPlMhXc4lx--128" style="edgeStyle=orthogonalEdgeStyle;rounded=0;orthogonalLoop=1;jettySize=auto;html=1;exitX=0.5;exitY=1;exitDx=0;exitDy=0;entryX=0.5;entryY=0;entryDx=0;entryDy=0;" parent="WIyWlLk6GJQsqaUBKTNV-1" source="u4m0mKmiAiPlMhXc4lx--42" target="u4m0mKmiAiPlMhXc4lx--86" edge="1">
          <mxGeometry relative="1" as="geometry">
            <Array as="points">
              <mxPoint x="200" y="100" />
              <mxPoint x="30" y="100" />
              <mxPoint x="30" y="500" />
              <mxPoint x="280" y="500" />
            </Array>
          </mxGeometry>
        </mxCell>
        <mxCell id="u4m0mKmiAiPlMhXc4lx--129" style="edgeStyle=orthogonalEdgeStyle;rounded=0;orthogonalLoop=1;jettySize=auto;html=1;exitX=0.5;exitY=1;exitDx=0;exitDy=0;entryX=0.5;entryY=0;entryDx=0;entryDy=0;" parent="WIyWlLk6GJQsqaUBKTNV-1" source="u4m0mKmiAiPlMhXc4lx--42" target="u4m0mKmiAiPlMhXc4lx--100" edge="1">
          <mxGeometry relative="1" as="geometry">
            <Array as="points">
              <mxPoint x="200" y="100" />
              <mxPoint x="30" y="100" />
              <mxPoint x="30" y="660" />
              <mxPoint x="280" y="660" />
            </Array>
          </mxGeometry>
        </mxCell>
        <mxCell id="u4m0mKmiAiPlMhXc4lx--42" value="login_id" style="rounded=0;whiteSpace=wrap;html=1;fontStyle=4" parent="WIyWlLk6GJQsqaUBKTNV-1" vertex="1">
          <mxGeometry x="160" y="50" width="80" height="20" as="geometry" />
        </mxCell>
        <mxCell id="u4m0mKmiAiPlMhXc4lx--43" value="user_name" style="rounded=0;whiteSpace=wrap;html=1;fontStyle=0" parent="WIyWlLk6GJQsqaUBKTNV-1" vertex="1">
          <mxGeometry x="240" y="50" width="120" height="20" as="geometry" />
        </mxCell>
        <mxCell id="u4m0mKmiAiPlMhXc4lx--44" value="user_password" style="rounded=0;whiteSpace=wrap;html=1;fontStyle=0" parent="WIyWlLk6GJQsqaUBKTNV-1" vertex="1">
          <mxGeometry x="360" y="50" width="120" height="20" as="geometry" />
        </mxCell>
        <mxCell id="u4m0mKmiAiPlMhXc4lx--45" value="Credentials" style="text;html=1;align=center;verticalAlign=middle;whiteSpace=wrap;rounded=0;" parent="WIyWlLk6GJQsqaUBKTNV-1" vertex="1">
          <mxGeometry x="40" y="40" width="120" height="40" as="geometry" />
        </mxCell>
        <mxCell id="u4m0mKmiAiPlMhXc4lx--46" value="login_id" style="rounded=0;whiteSpace=wrap;html=1;fontStyle=0" parent="WIyWlLk6GJQsqaUBKTNV-1" vertex="1">
          <mxGeometry x="240" y="130" width="80" height="20" as="geometry" />
        </mxCell>
        <mxCell id="u4m0mKmiAiPlMhXc4lx--121" style="edgeStyle=orthogonalEdgeStyle;rounded=0;orthogonalLoop=1;jettySize=auto;html=1;exitX=0.5;exitY=1;exitDx=0;exitDy=0;entryX=0.5;entryY=0;entryDx=0;entryDy=0;" parent="WIyWlLk6GJQsqaUBKTNV-1" source="u4m0mKmiAiPlMhXc4lx--47" target="u4m0mKmiAiPlMhXc4lx--59" edge="1">
          <mxGeometry relative="1" as="geometry">
            <Array as="points">
              <mxPoint x="200" y="180" />
              <mxPoint x="480" y="180" />
              <mxPoint x="480" y="260" />
              <mxPoint x="370" y="260" />
            </Array>
          </mxGeometry>
        </mxCell>
        <mxCell id="u4m0mKmiAiPlMhXc4lx--123" style="edgeStyle=orthogonalEdgeStyle;rounded=0;orthogonalLoop=1;jettySize=auto;html=1;exitX=0.5;exitY=1;exitDx=0;exitDy=0;entryX=0.5;entryY=0;entryDx=0;entryDy=0;" parent="WIyWlLk6GJQsqaUBKTNV-1" source="u4m0mKmiAiPlMhXc4lx--47" target="u4m0mKmiAiPlMhXc4lx--62" edge="1">
          <mxGeometry relative="1" as="geometry">
            <Array as="points">
              <mxPoint x="200" y="180" />
              <mxPoint x="730" y="180" />
            </Array>
          </mxGeometry>
        </mxCell>
        <mxCell id="u4m0mKmiAiPlMhXc4lx--124" style="edgeStyle=orthogonalEdgeStyle;rounded=0;orthogonalLoop=1;jettySize=auto;html=1;exitX=0.5;exitY=1;exitDx=0;exitDy=0;entryX=0.5;entryY=0;entryDx=0;entryDy=0;" parent="WIyWlLk6GJQsqaUBKTNV-1" source="u4m0mKmiAiPlMhXc4lx--47" target="u4m0mKmiAiPlMhXc4lx--65" edge="1">
          <mxGeometry relative="1" as="geometry">
            <Array as="points">
              <mxPoint x="200" y="180" />
              <mxPoint x="1080" y="180" />
            </Array>
          </mxGeometry>
        </mxCell>
        <mxCell id="u4m0mKmiAiPlMhXc4lx--134" style="edgeStyle=orthogonalEdgeStyle;rounded=0;orthogonalLoop=1;jettySize=auto;html=1;exitX=0.5;exitY=1;exitDx=0;exitDy=0;entryX=0.5;entryY=0;entryDx=0;entryDy=0;" parent="WIyWlLk6GJQsqaUBKTNV-1" source="u4m0mKmiAiPlMhXc4lx--47" target="u4m0mKmiAiPlMhXc4lx--55" edge="1">
          <mxGeometry relative="1" as="geometry" />
        </mxCell>
        <mxCell id="u4m0mKmiAiPlMhXc4lx--47" value="user_id" style="rounded=0;whiteSpace=wrap;html=1;fontStyle=4" parent="WIyWlLk6GJQsqaUBKTNV-1" vertex="1">
          <mxGeometry x="160" y="130" width="80" height="20" as="geometry" />
        </mxCell>
        <mxCell id="u4m0mKmiAiPlMhXc4lx--48" value="fName" style="rounded=0;whiteSpace=wrap;html=1;fontStyle=0" parent="WIyWlLk6GJQsqaUBKTNV-1" vertex="1">
          <mxGeometry x="320" y="130" width="80" height="20" as="geometry" />
        </mxCell>
        <mxCell id="u4m0mKmiAiPlMhXc4lx--49" value="Member Profile" style="text;html=1;align=center;verticalAlign=middle;whiteSpace=wrap;rounded=0;" parent="WIyWlLk6GJQsqaUBKTNV-1" vertex="1">
          <mxGeometry x="40" y="120" width="120" height="40" as="geometry" />
        </mxCell>
        <mxCell id="u4m0mKmiAiPlMhXc4lx--50" value="lName" style="rounded=0;whiteSpace=wrap;html=1;fontStyle=0" parent="WIyWlLk6GJQsqaUBKTNV-1" vertex="1">
          <mxGeometry x="400" y="130" width="80" height="20" as="geometry" />
        </mxCell>
        <mxCell id="u4m0mKmiAiPlMhXc4lx--51" value="personInfo" style="rounded=0;whiteSpace=wrap;html=1;fontStyle=0" parent="WIyWlLk6GJQsqaUBKTNV-1" vertex="1">
          <mxGeometry x="480" y="130" width="80" height="20" as="geometry" />
        </mxCell>
        <mxCell id="u4m0mKmiAiPlMhXc4lx--52" value="wCurrent" style="rounded=0;whiteSpace=wrap;html=1;fontStyle=0" parent="WIyWlLk6GJQsqaUBKTNV-1" vertex="1">
          <mxGeometry x="560" y="130" width="80" height="20" as="geometry" />
        </mxCell>
        <mxCell id="u4m0mKmiAiPlMhXc4lx--53" value="wGoal" style="rounded=0;whiteSpace=wrap;html=1;fontStyle=0" parent="WIyWlLk6GJQsqaUBKTNV-1" vertex="1">
          <mxGeometry x="640" y="130" width="80" height="20" as="geometry" />
        </mxCell>
        <mxCell id="u4m0mKmiAiPlMhXc4lx--54" value="tGoal" style="rounded=0;whiteSpace=wrap;html=1;fontStyle=0" parent="WIyWlLk6GJQsqaUBKTNV-1" vertex="1">
          <mxGeometry x="720" y="130" width="80" height="20" as="geometry" />
        </mxCell>
        <mxCell id="u4m0mKmiAiPlMhXc4lx--55" value="user_id" style="rounded=0;whiteSpace=wrap;html=1;fontStyle=0" parent="WIyWlLk6GJQsqaUBKTNV-1" vertex="1">
          <mxGeometry x="360" y="210" width="80" height="20" as="geometry" />
        </mxCell>
        <mxCell id="u4m0mKmiAiPlMhXc4lx--56" value="achievementDesc" style="rounded=0;whiteSpace=wrap;html=1;fontStyle=0" parent="WIyWlLk6GJQsqaUBKTNV-1" vertex="1">
          <mxGeometry x="240" y="210" width="120" height="20" as="geometry" />
        </mxCell>
        <mxCell id="u4m0mKmiAiPlMhXc4lx--58" value="Achievements" style="text;html=1;align=center;verticalAlign=middle;whiteSpace=wrap;rounded=0;" parent="WIyWlLk6GJQsqaUBKTNV-1" vertex="1">
          <mxGeometry x="40" y="200" width="120" height="40" as="geometry" />
        </mxCell>
        <mxCell id="u4m0mKmiAiPlMhXc4lx--59" value="user_id" style="rounded=0;whiteSpace=wrap;html=1;fontStyle=0" parent="WIyWlLk6GJQsqaUBKTNV-1" vertex="1">
          <mxGeometry x="340" y="290" width="60" height="20" as="geometry" />
        </mxCell>
        <mxCell id="u4m0mKmiAiPlMhXc4lx--122" style="edgeStyle=orthogonalEdgeStyle;rounded=0;orthogonalLoop=1;jettySize=auto;html=1;exitX=0.5;exitY=1;exitDx=0;exitDy=0;entryX=0.5;entryY=0;entryDx=0;entryDy=0;" parent="WIyWlLk6GJQsqaUBKTNV-1" source="u4m0mKmiAiPlMhXc4lx--60" target="u4m0mKmiAiPlMhXc4lx--107" edge="1">
          <mxGeometry relative="1" as="geometry">
            <Array as="points">
              <mxPoint x="300" y="340" />
              <mxPoint x="580" y="340" />
              <mxPoint x="580" y="420" />
              <mxPoint x="760" y="420" />
            </Array>
          </mxGeometry>
        </mxCell>
        <mxCell id="u4m0mKmiAiPlMhXc4lx--60" value="exercise_id" style="rounded=0;whiteSpace=wrap;html=1;fontStyle=0" parent="WIyWlLk6GJQsqaUBKTNV-1" vertex="1">
          <mxGeometry x="260" y="290" width="80" height="20" as="geometry" />
        </mxCell>
        <mxCell id="u4m0mKmiAiPlMhXc4lx--61" value="Taking Exercise" style="text;html=1;align=center;verticalAlign=middle;whiteSpace=wrap;rounded=0;" parent="WIyWlLk6GJQsqaUBKTNV-1" vertex="1">
          <mxGeometry x="40" y="280" width="120" height="40" as="geometry" />
        </mxCell>
        <mxCell id="u4m0mKmiAiPlMhXc4lx--62" value="user_id" style="rounded=0;whiteSpace=wrap;html=1;fontStyle=0" parent="WIyWlLk6GJQsqaUBKTNV-1" vertex="1">
          <mxGeometry x="690" y="290" width="80" height="20" as="geometry" />
        </mxCell>
        <mxCell id="u4m0mKmiAiPlMhXc4lx--126" style="edgeStyle=orthogonalEdgeStyle;rounded=0;orthogonalLoop=1;jettySize=auto;html=1;exitX=0.5;exitY=1;exitDx=0;exitDy=0;entryX=0.5;entryY=0;entryDx=0;entryDy=0;" parent="WIyWlLk6GJQsqaUBKTNV-1" source="u4m0mKmiAiPlMhXc4lx--63" target="u4m0mKmiAiPlMhXc4lx--68" edge="1">
          <mxGeometry relative="1" as="geometry">
            <Array as="points">
              <mxPoint x="650" y="350" />
              <mxPoint x="200" y="350" />
            </Array>
          </mxGeometry>
        </mxCell>
        <mxCell id="u4m0mKmiAiPlMhXc4lx--63" value="psession_id" style="rounded=0;whiteSpace=wrap;html=1;fontStyle=0" parent="WIyWlLk6GJQsqaUBKTNV-1" vertex="1">
          <mxGeometry x="610" y="290" width="80" height="20" as="geometry" />
        </mxCell>
        <mxCell id="u4m0mKmiAiPlMhXc4lx--64" value="Taking Personal Session" style="text;html=1;align=center;verticalAlign=middle;whiteSpace=wrap;rounded=0;" parent="WIyWlLk6GJQsqaUBKTNV-1" vertex="1">
          <mxGeometry x="400" y="280" width="120" height="40" as="geometry" />
        </mxCell>
        <mxCell id="u4m0mKmiAiPlMhXc4lx--65" value="user_id" style="rounded=0;whiteSpace=wrap;html=1;fontStyle=0" parent="WIyWlLk6GJQsqaUBKTNV-1" vertex="1">
          <mxGeometry x="1040" y="290" width="80" height="20" as="geometry" />
        </mxCell>
        <mxCell id="u4m0mKmiAiPlMhXc4lx--125" style="edgeStyle=orthogonalEdgeStyle;rounded=0;orthogonalLoop=1;jettySize=auto;html=1;exitX=0.5;exitY=1;exitDx=0;exitDy=0;entryX=0.5;entryY=0;entryDx=0;entryDy=0;" parent="WIyWlLk6GJQsqaUBKTNV-1" source="u4m0mKmiAiPlMhXc4lx--66" target="u4m0mKmiAiPlMhXc4lx--74" edge="1">
          <mxGeometry relative="1" as="geometry" />
        </mxCell>
        <mxCell id="u4m0mKmiAiPlMhXc4lx--66" value="gsession_id" style="rounded=0;whiteSpace=wrap;html=1;fontStyle=0" parent="WIyWlLk6GJQsqaUBKTNV-1" vertex="1">
          <mxGeometry x="960" y="290" width="80" height="20" as="geometry" />
        </mxCell>
        <mxCell id="u4m0mKmiAiPlMhXc4lx--67" value="Taking Group Session" style="text;html=1;align=center;verticalAlign=middle;whiteSpace=wrap;rounded=0;" parent="WIyWlLk6GJQsqaUBKTNV-1" vertex="1">
          <mxGeometry x="760" y="280" width="120" height="40" as="geometry" />
        </mxCell>
        <mxCell id="u4m0mKmiAiPlMhXc4lx--68" value="psession_id" style="rounded=0;whiteSpace=wrap;html=1;fontStyle=4" parent="WIyWlLk6GJQsqaUBKTNV-1" vertex="1">
          <mxGeometry x="160" y="370" width="80" height="20" as="geometry" />
        </mxCell>
        <mxCell id="u4m0mKmiAiPlMhXc4lx--69" value="roomNumber" style="rounded=0;whiteSpace=wrap;html=1;fontStyle=0" parent="WIyWlLk6GJQsqaUBKTNV-1" vertex="1">
          <mxGeometry x="240" y="370" width="120" height="20" as="geometry" />
        </mxCell>
        <mxCell id="u4m0mKmiAiPlMhXc4lx--70" value="Personal Session" style="text;html=1;align=center;verticalAlign=middle;whiteSpace=wrap;rounded=0;" parent="WIyWlLk6GJQsqaUBKTNV-1" vertex="1">
          <mxGeometry x="40" y="360" width="120" height="40" as="geometry" />
        </mxCell>
        <mxCell id="u4m0mKmiAiPlMhXc4lx--71" value="day" style="rounded=0;whiteSpace=wrap;html=1;fontStyle=0" parent="WIyWlLk6GJQsqaUBKTNV-1" vertex="1">
          <mxGeometry x="360" y="370" width="40" height="20" as="geometry" />
        </mxCell>
        <mxCell id="u4m0mKmiAiPlMhXc4lx--72" value="startTime" style="rounded=0;whiteSpace=wrap;html=1;fontStyle=0" parent="WIyWlLk6GJQsqaUBKTNV-1" vertex="1">
          <mxGeometry x="400" y="370" width="80" height="20" as="geometry" />
        </mxCell>
        <mxCell id="u4m0mKmiAiPlMhXc4lx--73" value="endTime" style="rounded=0;whiteSpace=wrap;html=1;fontStyle=0" parent="WIyWlLk6GJQsqaUBKTNV-1" vertex="1">
          <mxGeometry x="480" y="370" width="80" height="20" as="geometry" />
        </mxCell>
        <mxCell id="u4m0mKmiAiPlMhXc4lx--74" value="gsession_id" style="rounded=0;whiteSpace=wrap;html=1;fontStyle=4" parent="WIyWlLk6GJQsqaUBKTNV-1" vertex="1">
          <mxGeometry x="720" y="370" width="80" height="20" as="geometry" />
        </mxCell>
        <mxCell id="u4m0mKmiAiPlMhXc4lx--75" value="roomNumber" style="rounded=0;whiteSpace=wrap;html=1;fontStyle=0" parent="WIyWlLk6GJQsqaUBKTNV-1" vertex="1">
          <mxGeometry x="800" y="370" width="120" height="20" as="geometry" />
        </mxCell>
        <mxCell id="u4m0mKmiAiPlMhXc4lx--76" value="Group Session" style="text;html=1;align=center;verticalAlign=middle;whiteSpace=wrap;rounded=0;" parent="WIyWlLk6GJQsqaUBKTNV-1" vertex="1">
          <mxGeometry x="600" y="360" width="120" height="40" as="geometry" />
        </mxCell>
        <mxCell id="u4m0mKmiAiPlMhXc4lx--77" value="day" style="rounded=0;whiteSpace=wrap;html=1;fontStyle=0" parent="WIyWlLk6GJQsqaUBKTNV-1" vertex="1">
          <mxGeometry x="920" y="370" width="40" height="20" as="geometry" />
        </mxCell>
        <mxCell id="u4m0mKmiAiPlMhXc4lx--78" value="startTime" style="rounded=0;whiteSpace=wrap;html=1;fontStyle=0" parent="WIyWlLk6GJQsqaUBKTNV-1" vertex="1">
          <mxGeometry x="960" y="370" width="80" height="20" as="geometry" />
        </mxCell>
        <mxCell id="u4m0mKmiAiPlMhXc4lx--79" value="endTime" style="rounded=0;whiteSpace=wrap;html=1;fontStyle=0" parent="WIyWlLk6GJQsqaUBKTNV-1" vertex="1">
          <mxGeometry x="1040" y="370" width="80" height="20" as="geometry" />
        </mxCell>
        <mxCell id="u4m0mKmiAiPlMhXc4lx--80" value="booking_id" style="rounded=0;whiteSpace=wrap;html=1;fontStyle=4" parent="WIyWlLk6GJQsqaUBKTNV-1" vertex="1">
          <mxGeometry x="160" y="450" width="80" height="20" as="geometry" />
        </mxCell>
        <mxCell id="u4m0mKmiAiPlMhXc4lx--132" style="edgeStyle=orthogonalEdgeStyle;rounded=0;orthogonalLoop=1;jettySize=auto;html=1;exitX=0.5;exitY=0;exitDx=0;exitDy=0;entryX=0.5;entryY=1;entryDx=0;entryDy=0;" parent="WIyWlLk6GJQsqaUBKTNV-1" source="u4m0mKmiAiPlMhXc4lx--81" target="u4m0mKmiAiPlMhXc4lx--69" edge="1">
          <mxGeometry relative="1" as="geometry" />
        </mxCell>
        <mxCell id="u4m0mKmiAiPlMhXc4lx--133" style="edgeStyle=orthogonalEdgeStyle;rounded=0;orthogonalLoop=1;jettySize=auto;html=1;exitX=0.5;exitY=0;exitDx=0;exitDy=0;entryX=0.5;entryY=1;entryDx=0;entryDy=0;" parent="WIyWlLk6GJQsqaUBKTNV-1" source="u4m0mKmiAiPlMhXc4lx--81" target="u4m0mKmiAiPlMhXc4lx--75" edge="1">
          <mxGeometry relative="1" as="geometry">
            <Array as="points">
              <mxPoint x="300" y="410" />
              <mxPoint x="860" y="410" />
            </Array>
          </mxGeometry>
        </mxCell>
        <mxCell id="u4m0mKmiAiPlMhXc4lx--81" value="roomNumber" style="rounded=0;whiteSpace=wrap;html=1;fontStyle=0" parent="WIyWlLk6GJQsqaUBKTNV-1" vertex="1">
          <mxGeometry x="240" y="450" width="120" height="20" as="geometry" />
        </mxCell>
        <mxCell id="u4m0mKmiAiPlMhXc4lx--82" value="Room Bookings" style="text;html=1;align=center;verticalAlign=middle;whiteSpace=wrap;rounded=0;" parent="WIyWlLk6GJQsqaUBKTNV-1" vertex="1">
          <mxGeometry x="40" y="440" width="120" height="40" as="geometry" />
        </mxCell>
        <mxCell id="u4m0mKmiAiPlMhXc4lx--83" value="day" style="rounded=0;whiteSpace=wrap;html=1;fontStyle=0" parent="WIyWlLk6GJQsqaUBKTNV-1" vertex="1">
          <mxGeometry x="360" y="450" width="40" height="20" as="geometry" />
        </mxCell>
        <mxCell id="u4m0mKmiAiPlMhXc4lx--84" value="startTime" style="rounded=0;whiteSpace=wrap;html=1;fontStyle=0" parent="WIyWlLk6GJQsqaUBKTNV-1" vertex="1">
          <mxGeometry x="400" y="450" width="80" height="20" as="geometry" />
        </mxCell>
        <mxCell id="u4m0mKmiAiPlMhXc4lx--85" value="endTime" style="rounded=0;whiteSpace=wrap;html=1;fontStyle=0" parent="WIyWlLk6GJQsqaUBKTNV-1" vertex="1">
          <mxGeometry x="480" y="450" width="80" height="20" as="geometry" />
        </mxCell>
        <mxCell id="u4m0mKmiAiPlMhXc4lx--86" value="login_id" style="rounded=0;whiteSpace=wrap;html=1;fontStyle=0" parent="WIyWlLk6GJQsqaUBKTNV-1" vertex="1">
          <mxGeometry x="240" y="530" width="80" height="20" as="geometry" />
        </mxCell>
        <mxCell id="u4m0mKmiAiPlMhXc4lx--130" style="edgeStyle=orthogonalEdgeStyle;rounded=0;orthogonalLoop=1;jettySize=auto;html=1;exitX=0.5;exitY=1;exitDx=0;exitDy=0;entryX=0.5;entryY=0;entryDx=0;entryDy=0;" parent="WIyWlLk6GJQsqaUBKTNV-1" source="u4m0mKmiAiPlMhXc4lx--87" target="u4m0mKmiAiPlMhXc4lx--95" edge="1">
          <mxGeometry relative="1" as="geometry" />
        </mxCell>
        <mxCell id="u4m0mKmiAiPlMhXc4lx--87" value="trainer_id" style="rounded=0;whiteSpace=wrap;html=1;fontStyle=4" parent="WIyWlLk6GJQsqaUBKTNV-1" vertex="1">
          <mxGeometry x="160" y="530" width="80" height="20" as="geometry" />
        </mxCell>
        <mxCell id="u4m0mKmiAiPlMhXc4lx--88" value="Trainer Profile" style="text;html=1;align=center;verticalAlign=middle;whiteSpace=wrap;rounded=0;" parent="WIyWlLk6GJQsqaUBKTNV-1" vertex="1">
          <mxGeometry x="40" y="520" width="120" height="40" as="geometry" />
        </mxCell>
        <mxCell id="u4m0mKmiAiPlMhXc4lx--89" value="fName" style="rounded=0;whiteSpace=wrap;html=1;fontStyle=0" parent="WIyWlLk6GJQsqaUBKTNV-1" vertex="1">
          <mxGeometry x="320" y="530" width="80" height="20" as="geometry" />
        </mxCell>
        <mxCell id="u4m0mKmiAiPlMhXc4lx--92" value="lName" style="rounded=0;whiteSpace=wrap;html=1;fontStyle=0" parent="WIyWlLk6GJQsqaUBKTNV-1" vertex="1">
          <mxGeometry x="400" y="530" width="80" height="20" as="geometry" />
        </mxCell>
        <mxCell id="u4m0mKmiAiPlMhXc4lx--93" value="personInfo" style="rounded=0;whiteSpace=wrap;html=1;fontStyle=0" parent="WIyWlLk6GJQsqaUBKTNV-1" vertex="1">
          <mxGeometry x="480" y="530" width="80" height="20" as="geometry" />
        </mxCell>
        <mxCell id="u4m0mKmiAiPlMhXc4lx--94" value="day" style="rounded=0;whiteSpace=wrap;html=1;fontStyle=0" parent="WIyWlLk6GJQsqaUBKTNV-1" vertex="1">
          <mxGeometry x="320" y="610" width="80" height="20" as="geometry" />
        </mxCell>
        <mxCell id="u4m0mKmiAiPlMhXc4lx--95" value="trainer_id" style="rounded=0;whiteSpace=wrap;html=1;fontStyle=0" parent="WIyWlLk6GJQsqaUBKTNV-1" vertex="1">
          <mxGeometry x="240" y="610" width="80" height="20" as="geometry" />
        </mxCell>
        <mxCell id="u4m0mKmiAiPlMhXc4lx--96" value="Trainer Availability" style="text;html=1;align=center;verticalAlign=middle;whiteSpace=wrap;rounded=0;" parent="WIyWlLk6GJQsqaUBKTNV-1" vertex="1">
          <mxGeometry x="40" y="600" width="120" height="40" as="geometry" />
        </mxCell>
        <mxCell id="u4m0mKmiAiPlMhXc4lx--97" value="startTime" style="rounded=0;whiteSpace=wrap;html=1;fontStyle=0" parent="WIyWlLk6GJQsqaUBKTNV-1" vertex="1">
          <mxGeometry x="400" y="610" width="80" height="20" as="geometry" />
        </mxCell>
        <mxCell id="u4m0mKmiAiPlMhXc4lx--98" value="endTime" style="rounded=0;whiteSpace=wrap;html=1;fontStyle=0" parent="WIyWlLk6GJQsqaUBKTNV-1" vertex="1">
          <mxGeometry x="480" y="610" width="80" height="20" as="geometry" />
        </mxCell>
        <mxCell id="u4m0mKmiAiPlMhXc4lx--100" value="login_id" style="rounded=0;whiteSpace=wrap;html=1;fontStyle=0" parent="WIyWlLk6GJQsqaUBKTNV-1" vertex="1">
          <mxGeometry x="240" y="690" width="80" height="20" as="geometry" />
        </mxCell>
        <mxCell id="u4m0mKmiAiPlMhXc4lx--101" value="admin_id" style="rounded=0;whiteSpace=wrap;html=1;fontStyle=4" parent="WIyWlLk6GJQsqaUBKTNV-1" vertex="1">
          <mxGeometry x="160" y="690" width="80" height="20" as="geometry" />
        </mxCell>
        <mxCell id="u4m0mKmiAiPlMhXc4lx--102" value="Admin Profile" style="text;html=1;align=center;verticalAlign=middle;whiteSpace=wrap;rounded=0;" parent="WIyWlLk6GJQsqaUBKTNV-1" vertex="1">
          <mxGeometry x="40" y="680" width="120" height="40" as="geometry" />
        </mxCell>
        <mxCell id="u4m0mKmiAiPlMhXc4lx--103" value="fName" style="rounded=0;whiteSpace=wrap;html=1;fontStyle=0" parent="WIyWlLk6GJQsqaUBKTNV-1" vertex="1">
          <mxGeometry x="320" y="690" width="80" height="20" as="geometry" />
        </mxCell>
        <mxCell id="u4m0mKmiAiPlMhXc4lx--104" value="lName" style="rounded=0;whiteSpace=wrap;html=1;fontStyle=0" parent="WIyWlLk6GJQsqaUBKTNV-1" vertex="1">
          <mxGeometry x="400" y="690" width="80" height="20" as="geometry" />
        </mxCell>
        <mxCell id="u4m0mKmiAiPlMhXc4lx--105" value="personInfo" style="rounded=0;whiteSpace=wrap;html=1;fontStyle=0" parent="WIyWlLk6GJQsqaUBKTNV-1" vertex="1">
          <mxGeometry x="480" y="690" width="80" height="20" as="geometry" />
        </mxCell>
        <mxCell id="u4m0mKmiAiPlMhXc4lx--106" value="exerciseName" style="rounded=0;whiteSpace=wrap;html=1;fontStyle=0" parent="WIyWlLk6GJQsqaUBKTNV-1" vertex="1">
          <mxGeometry x="800" y="450" width="120" height="20" as="geometry" />
        </mxCell>
        <mxCell id="u4m0mKmiAiPlMhXc4lx--107" value="exercise_id" style="rounded=0;whiteSpace=wrap;html=1;fontStyle=4" parent="WIyWlLk6GJQsqaUBKTNV-1" vertex="1">
          <mxGeometry x="720" y="450" width="80" height="20" as="geometry" />
        </mxCell>
        <mxCell id="u4m0mKmiAiPlMhXc4lx--108" value="Exercises" style="text;html=1;align=center;verticalAlign=middle;whiteSpace=wrap;rounded=0;" parent="WIyWlLk6GJQsqaUBKTNV-1" vertex="1">
          <mxGeometry x="600" y="440" width="120" height="40" as="geometry" />
        </mxCell>
        <mxCell id="u4m0mKmiAiPlMhXc4lx--111" value="cost" style="rounded=0;whiteSpace=wrap;html=1;fontStyle=0" parent="WIyWlLk6GJQsqaUBKTNV-1" vertex="1">
          <mxGeometry x="920" y="450" width="40" height="20" as="geometry" />
        </mxCell>
        <mxCell id="u4m0mKmiAiPlMhXc4lx--112" value="equipName" style="rounded=0;whiteSpace=wrap;html=1;fontStyle=0" parent="WIyWlLk6GJQsqaUBKTNV-1" vertex="1">
          <mxGeometry x="800" y="610" width="80" height="20" as="geometry" />
        </mxCell>
        <mxCell id="u4m0mKmiAiPlMhXc4lx--113" value="equip_id" style="rounded=0;whiteSpace=wrap;html=1;fontStyle=4" parent="WIyWlLk6GJQsqaUBKTNV-1" vertex="1">
          <mxGeometry x="720" y="610" width="80" height="20" as="geometry" />
        </mxCell>
        <mxCell id="u4m0mKmiAiPlMhXc4lx--114" value="Equipment" style="text;html=1;align=center;verticalAlign=middle;whiteSpace=wrap;rounded=0;" parent="WIyWlLk6GJQsqaUBKTNV-1" vertex="1">
          <mxGeometry x="600" y="600" width="120" height="40" as="geometry" />
        </mxCell>
        <mxCell id="u4m0mKmiAiPlMhXc4lx--115" value="status" style="rounded=0;whiteSpace=wrap;html=1;fontStyle=0" parent="WIyWlLk6GJQsqaUBKTNV-1" vertex="1">
          <mxGeometry x="880" y="610" width="40" height="20" as="geometry" />
        </mxCell>
        <mxCell id="u4m0mKmiAiPlMhXc4lx--131" style="edgeStyle=orthogonalEdgeStyle;rounded=0;orthogonalLoop=1;jettySize=auto;html=1;exitX=0.5;exitY=0;exitDx=0;exitDy=0;entryX=0.5;entryY=0;entryDx=0;entryDy=0;" parent="WIyWlLk6GJQsqaUBKTNV-1" source="u4m0mKmiAiPlMhXc4lx--116" target="u4m0mKmiAiPlMhXc4lx--47" edge="1">
          <mxGeometry relative="1" as="geometry">
            <Array as="points">
              <mxPoint x="840" y="660" />
              <mxPoint x="1140" y="660" />
              <mxPoint x="1140" y="110" />
              <mxPoint x="200" y="110" />
            </Array>
          </mxGeometry>
        </mxCell>
        <mxCell id="u4m0mKmiAiPlMhXc4lx--116" value="user_id" style="rounded=0;whiteSpace=wrap;html=1;fontStyle=0" parent="WIyWlLk6GJQsqaUBKTNV-1" vertex="1">
          <mxGeometry x="800" y="690" width="80" height="20" as="geometry" />
        </mxCell>
        <mxCell id="u4m0mKmiAiPlMhXc4lx--117" value="bill_id" style="rounded=0;whiteSpace=wrap;html=1;fontStyle=4" parent="WIyWlLk6GJQsqaUBKTNV-1" vertex="1">
          <mxGeometry x="720" y="690" width="80" height="20" as="geometry" />
        </mxCell>
        <mxCell id="u4m0mKmiAiPlMhXc4lx--118" value="Bills" style="text;html=1;align=center;verticalAlign=middle;whiteSpace=wrap;rounded=0;" parent="WIyWlLk6GJQsqaUBKTNV-1" vertex="1">
          <mxGeometry x="600" y="680" width="120" height="40" as="geometry" />
        </mxCell>
        <mxCell id="u4m0mKmiAiPlMhXc4lx--119" value="totalCost" style="rounded=0;whiteSpace=wrap;html=1;fontStyle=0" parent="WIyWlLk6GJQsqaUBKTNV-1" vertex="1">
          <mxGeometry x="880" y="690" width="80" height="20" as="geometry" />
        </mxCell>
        <mxCell id="u4m0mKmiAiPlMhXc4lx--120" value="status" style="rounded=0;whiteSpace=wrap;html=1;fontStyle=0" parent="WIyWlLk6GJQsqaUBKTNV-1" vertex="1">
          <mxGeometry x="960" y="690" width="80" height="20" as="geometry" />
        </mxCell>
        <mxCell id="vfxCnHZWjqprnD6UD-iG-0" value="ach_id" style="rounded=0;whiteSpace=wrap;html=1;fontStyle=4" vertex="1" parent="WIyWlLk6GJQsqaUBKTNV-1">
          <mxGeometry x="160" y="210" width="80" height="20" as="geometry" />
        </mxCell>
        <mxCell id="vfxCnHZWjqprnD6UD-iG-2" value="taking_id" style="rounded=0;whiteSpace=wrap;html=1;fontStyle=4" vertex="1" parent="WIyWlLk6GJQsqaUBKTNV-1">
          <mxGeometry x="160" y="290" width="100" height="20" as="geometry" />
        </mxCell>
        <mxCell id="vfxCnHZWjqprnD6UD-iG-4" value="taking_id" style="rounded=0;whiteSpace=wrap;html=1;fontStyle=4" vertex="1" parent="WIyWlLk6GJQsqaUBKTNV-1">
          <mxGeometry x="880" y="290" width="80" height="20" as="geometry" />
        </mxCell>
        <mxCell id="vfxCnHZWjqprnD6UD-iG-6" value="taking_id" style="rounded=0;whiteSpace=wrap;html=1;fontStyle=4" vertex="1" parent="WIyWlLk6GJQsqaUBKTNV-1">
          <mxGeometry x="520" y="290" width="90" height="20" as="geometry" />
        </mxCell>
        <mxCell id="vfxCnHZWjqprnD6UD-iG-7" value="time_id" style="rounded=0;whiteSpace=wrap;html=1;fontStyle=4" vertex="1" parent="WIyWlLk6GJQsqaUBKTNV-1">
          <mxGeometry x="160" y="610" width="80" height="20" as="geometry" />
        </mxCell>
      </root>
    </mxGraphModel>
  </diagram>
</mxfile>
